<svg id="visual" viewBox="0 0 900 600" width="900" height="600" xmlns="http://www.w3.org/2000/svg" xmlns:xlink="http://www.w3.org/1999/xlink" version="1.1"><rect x="0" y="0" width="900" height="600" fill="#ffffff"></rect><path d="M0 352L21.5 343.7C43 335.3 86 318.7 128.8 324.3C171.7 330 214.3 358 257.2 353.2C300 348.3 343 310.7 385.8 302.3C428.7 294 471.3 315 514.2 322.3C557 329.7 600 323.3 642.8 325.8C685.7 328.3 728.3 339.7 771.2 341C814 342.3 857 333.7 878.5 329.3L900 325L900 0L878.5 0C857 0 814 0 771.2 0C728.3 0 685.7 0 642.8 0C600 0 557 0 514.2 0C471.3 0 428.7 0 385.8 0C343 0 300 0 257.2 0C214.3 0 171.7 0 128.8 0C86 0 43 0 21.5 0L0 0Z" fill="#89bc52"></path><path d="M0 260L21.5 258.7C43 257.3 86 254.7 128.8 247.5C171.7 240.3 214.3 228.7 257.2 218.5C300 208.3 343 199.7 385.8 195.5C428.7 191.3 471.3 191.7 514.2 192.3C557 193 600 194 642.8 199.2C685.7 204.3 728.3 213.7 771.2 209.7C814 205.7 857 188.3 878.5 179.7L900 171L900 0L878.5 0C857 0 814 0 771.2 0C728.3 0 685.7 0 642.8 0C600 0 557 0 514.2 0C471.3 0 428.7 0 385.8 0C343 0 300 0 257.2 0C214.3 0 171.7 0 128.8 0C86 0 43 0 21.5 0L0 0Z" fill="#63a11b"></path><path d="M0 75L21.5 91.3C43 107.7 86 140.3 128.8 143.5C171.7 146.7 214.3 120.3 257.2 108.7C300 97 343 100 385.8 103.7C428.7 107.3 471.3 111.7 514.2 117.7C557 123.7 600 131.3 642.8 128C685.7 124.7 728.3 110.3 771.2 112.3C814 114.3 857 132.7 878.5 141.8L900 151L900 0L878.5 0C857 0 814 0 771.2 0C728.3 0 685.7 0 642.8 0C600 0 557 0 514.2 0C471.3 0 428.7 0 385.8 0C343 0 300 0 257.2 0C214.3 0 171.7 0 128.8 0C86 0 43 0 21.5 0L0 0Z" fill="#487617"></path></svg>