<svg id="visual" viewBox="0 0 450 900" width="450" height="900" xmlns="http://www.w3.org/2000/svg" xmlns:xlink="http://www.w3.org/1999/xlink" version="1.1"><rect x="0" y="0" width="450" height="900" fill="#ffffff"></rect><path d="M0 526L10.7 539.7C21.3 553.3 42.7 580.7 64.2 578.7C85.7 576.7 107.3 545.3 128.8 541C150.3 536.7 171.7 559.3 193 560.5C214.3 561.7 235.7 541.3 257 532.3C278.3 523.3 299.7 525.7 321.2 529.2C342.7 532.7 364.3 537.3 385.8 541.2C407.3 545 428.7 548 439.3 549.5L450 551L450 0L439.3 0C428.7 0 407.3 0 385.8 0C364.3 0 342.7 0 321.2 0C299.7 0 278.3 0 257 0C235.7 0 214.3 0 193 0C171.7 0 150.3 0 128.8 0C107.3 0 85.7 0 64.2 0C42.7 0 21.3 0 10.7 0L0 0Z" fill="#89bc52"></path><path d="M0 383L10.7 370.2C21.3 357.3 42.7 331.7 64.2 338.2C85.7 344.7 107.3 383.3 128.8 394.8C150.3 406.3 171.7 390.7 193 380C214.3 369.3 235.7 363.7 257 370C278.3 376.3 299.7 394.7 321.2 387.8C342.7 381 364.3 349 385.8 332.8C407.3 316.7 428.7 316.3 439.3 316.2L450 316L450 0L439.3 0C428.7 0 407.3 0 385.8 0C364.3 0 342.7 0 321.2 0C299.7 0 278.3 0 257 0C235.7 0 214.3 0 193 0C171.7 0 150.3 0 128.8 0C107.3 0 85.7 0 64.2 0C42.7 0 21.3 0 10.7 0L0 0Z" fill="#63a11b"></path><path d="M0 226L10.7 210.8C21.3 195.7 42.7 165.3 64.2 167.3C85.7 169.3 107.3 203.7 128.8 204.8C150.3 206 171.7 174 193 175.2C214.3 176.3 235.7 210.7 257 226.8C278.3 243 299.7 241 321.2 237.2C342.7 233.3 364.3 227.7 385.8 226.8C407.3 226 428.7 230 439.3 232L450 234L450 0L439.3 0C428.7 0 407.3 0 385.8 0C364.3 0 342.7 0 321.2 0C299.7 0 278.3 0 257 0C235.7 0 214.3 0 193 0C171.7 0 150.3 0 128.8 0C107.3 0 85.7 0 64.2 0C42.7 0 21.3 0 10.7 0L0 0Z" fill="#487617"></path></svg>