<svg xmlns="http://www.w3.org/2000/svg" fill="none" viewBox="0 0 3000 3000" id="Teamattendsonlinemeeting"><path fill="#40b13f" d="M813.749 1454.89C813.749 1454.89 813.749 1893.81 813.749 2110.14L1152.77 2398.01L2107.26 2358.23L1768.24 1996.53L1775.8 1504.11L813.749 1454.89Z" class="color1b81a6 svgShape"></path><path fill="#40b13f" d="M863.262 1497.77C863.262 1497.77 871.348 1890.23 875.625 1959.31H1732.5L1730.27 1537.03L863.262 1497.77Z" class="color203752 svgShape"></path><path fill="#40b13f" fill-rule="evenodd" d="M860.269 1494.7L1733.19 1534.23L1735.45 1962.24H872.871L872.701 1959.49C870.558 1924.88 867.466 1809.42 864.911 1702.71C863.633 1649.33 862.488 1598.11 861.663 1560.23C861.251 1541.3 860.918 1525.7 860.689 1514.83C860.574 1509.4 860.485 1505.15 860.425 1502.25L860.333 1497.83C860.333 1497.83 860.333 1497.83 863.262 1497.77L860.333 1497.83L860.269 1494.7ZM866.256 1500.84L866.283 1502.13C866.343 1505.02 866.432 1509.27 866.547 1514.71C866.776 1525.57 867.109 1541.17 867.521 1560.11C868.346 1597.98 869.491 1649.19 870.769 1702.57C873.261 1806.67 876.26 1918.87 878.387 1956.38H1729.56L1727.36 1539.83L866.256 1500.84Z" clip-rule="evenodd" class="color1b81a6 svgShape"></path><path fill="#40b13f" d="M247.381 1283.09C247.381 1488.93 288.045 1618.01 599.647 1618.01C911.249 1618.01 1498.59 1611.74 1498.59 1611.74C1498.59 1611.74 1514 1713.11 1420.25 1806.86C1420.25 1806.86 1626.5 1800.65 1680.23 1609.34C1680.23 1609.34 1718.55 1605.36 1801.29 1605.36C1884.02 1605.36 2028.05 1588.48 2028.05 1390.9C2028.05 1193.33 2017.32 872.818 2017.32 743.795C2017.32 614.772 2007.36 490.494 1731.56 490.494C1455.76 490.494 894.315 492.955 613.006 492.955C331.698 492.955 231.502 543.521 231.502 821.139C231.502 1098.76 247.381 1283.09 247.381 1283.09Z" class="color1b81a6 svgShape"></path><path fill="#ffdaa6" d="M1903.95 1022.46C1930.72 997.555 1950 964.684 1958.62 929.118 1968.93 886.578 1964.83 839.293 1987.74 801.969 1990.78 796.989 1996.17 791.715 2001.56 793.942 2005.72 795.7 2006.96 800.914 2007.6 805.426 2009.18 816.852 2010.65 828.336 2011.94 839.821 2050.26 770.739 2103.52 759.078 2122.03 779.996 2132.64 792.008 2147.4 840.993 2105.69 905.856 2091.04 928.59 2071.53 947.633 2053.89 968.082 2035.96 988.942 2019.9 1011.38 2005.96 1035.11 1996.94 1050.52 1987.33 1067.75 1970.45 1073.55 1956.86 1078.24 1941.27 1073.79 1930.02 1064.82 1918.77 1055.8 1911.39 1042.85 1903.95 1022.46zM1208.85 982.262C1198.42 997.672 1141.7 1067.34 1123.3 1064.41 1086.15 1058.55 1028.62 970.602 1023.22 963.278 1019.01 957.536 1018.6 949.918 1018.36 942.829 1017.01 904.391 1015.72 865.895 1014.44 827.457 1013.97 814.332 1013.5 801.266 1013.09 788.2 1064.18 765.7 1123.71 755.153 1183.65 751.52 1186.88 751.344 1190.45 751.227 1192.97 753.219 1195.72 755.446 1196.25 759.43 1196.6 762.946 1200.06 801.09 1203.52 839.176 1206.97 877.321 1209.14 901.286 1211.31 925.25 1213.48 949.157 1214.47 960.524 1215.24 972.887 1208.85 982.262z" class="colorffc5a6 svgShape"></path><path fill="#ffbf66" d="M1206.97 877.378C1206.15 877.554 1205.33 877.671 1204.46 877.788 1151.72 885.347 1068.11 883.062 1014.03 815.972 1013.56 802.847 1013.5 801.324 1013.09 788.257 1064.18 765.757 1123.71 755.21 1183.65 751.578 1186.88 751.402 1190.45 751.285 1192.97 753.277 1195.72 755.503 1196.25 759.488 1196.6 763.003 1200.06 801.089 1203.52 839.234 1206.97 877.378zM968.792 642.604C956.194 646.178 947.522 657.545 941.253 669.029 938.44 674.186 935.862 679.576 934.807 685.319 931.35 704.361 945.706 723.053 963.401 730.904 981.038 738.756 1001.19 738.346 1020.53 737.408 1085.39 734.303 1150.02 727.33 1214.07 716.549 1222.5 715.143 1231.06 713.619 1238.73 709.811 1261.06 698.795 1270.32 667.858 1258.77 645.826 1250.51 630.123 1234.1 619.986 1216.99 615.358 1199.89 610.729 1181.84 611.022 1164.14 611.549 1098.11 613.541 1033.24 624.322 968.792 642.604z" class="colorff9f6b svgShape"></path><path fill="#ffdaa6" d="M971.132 624.902C969.198 658.77 970.194 692.754 974.237 726.445C977.929 757.442 985.37 790.371 1008.51 811.348C1015.37 817.559 1023.34 822.481 1031.66 826.641C1081.76 851.719 1145.04 848.027 1191.97 817.441C1197.01 814.16 1201.82 810.586 1206.15 806.426C1219.28 793.594 1226.31 775.606 1229.12 757.5C1231.93 739.395 1230.82 720.938 1229.71 702.598C1227.95 673.652 1226.19 644.707 1222.79 615.938C1221.91 608.438 1220.86 600.762 1217.17 594.141C1211.31 583.535 1199.76 577.441 1188.57 572.695C1158.05 559.746 1124.59 552.305 1091.6 555.996C1075.37 557.813 1059.55 562.324 1043.85 566.777C1033.01 569.883 1022.05 572.988 1012.38 578.789C1001.54 585.293 992.929 594.844 984.491 604.219C979.042 610.371 971.6 616.758 971.132 624.902Z" class="colorffc5a6 svgShape"></path><path fill="#40b13f" d="M1228.42 682.384C1225.78 679.279 1224.32 675.353 1223.03 671.427C1214.24 645.236 1208.73 618.049 1206.56 590.509C1188.52 603.986 1166.31 613.127 1143.34 617.697C1120.37 622.267 1096.76 622.209 1073.55 619.689C1065.76 618.81 1057.91 617.697 1050.47 615.177C1037.29 610.724 1025.86 602.228 1015.37 593.088C1012.38 631.759 996.152 669.904 970.547 700.256C949.57 688.068 938.379 663.927 933.399 640.138C927.891 613.595 928.652 585.588 937.442 559.924C946.231 534.318 963.281 511.291 986.191 496.877C995.508 491.017 1006.23 486.506 1017.36 489.084C1030.02 466.525 1056.33 455.802 1081.17 448.713C1110.06 440.451 1203.46 433.068 1250.92 497.756C1273.71 528.81 1269.2 574.22 1264.1 599.416C1258.18 629.181 1247.7 659.006 1228.42 682.384Z" class="color203752 svgShape"></path><path fill="#40b13f" d="M1020.64 642.132C1039.69 634.28 1061.25 633.87 1080.7 640.081 1087.91 642.366 1090.9 631.058 1083.75 628.773 1061.07 621.507 1036.7 622.972 1014.79 631.995 1011.86 633.226 1011.21 637.503 1012.62 640.023 1014.43 643.069 1017.71 643.362 1020.64 642.132zM1124.83 640.843C1145.45 633.812 1167.54 634.046 1188.05 641.429 1191.04 642.484 1194.43 640.14 1195.2 637.269 1196.08 633.987 1194.02 631.175 1191.04 630.12 1168.89 622.152 1144.16 621.917 1121.84 629.534 1114.75 631.937 1117.68 643.245 1124.83 640.843zM1047.3 659.534C1047.07 659.534 1046.89 659.593 1046.66 659.71 1046.01 659.944 1045.25 660.179 1044.67 660.589 1044.37 660.765 1044.08 660.999 1043.85 661.233 1043.55 661.468 1043.26 661.644 1042.97 661.878 1042.44 662.347 1042.03 662.991 1041.68 663.519 1041.56 663.694 1041.44 663.87 1041.33 664.104 1041.03 664.69 1040.74 665.394 1040.57 666.038 1040.45 666.565 1040.39 667.151 1040.33 667.737 1040.33 667.855 1040.33 667.972 1040.33 668.089 1040.33 668.206 1040.33 668.265 1040.33 668.382 1040.39 668.968 1040.45 669.612 1040.57 670.198 1040.8 671.077 1041.15 672.015 1041.68 672.776 1042.09 673.362 1042.5 673.948 1043.03 674.417 1043.08 674.476 1043.2 674.534 1043.26 674.593 1043.73 674.944 1044.2 675.355 1044.73 675.706 1045.31 676.058 1045.96 676.292 1046.54 676.468 1047.25 676.702 1048.01 676.761 1048.71 676.819 1048.94 676.819 1049.24 676.819 1049.47 676.819 1050.17 676.761 1051 676.702 1051.7 676.468 1052.4 676.233 1053.1 675.94 1053.75 675.647 1053.98 675.53 1054.16 675.413 1054.39 675.296 1054.98 674.886 1055.57 674.476 1056.09 674.007 1056.27 673.831 1056.44 673.655 1056.62 673.48 1057.03 672.952 1057.5 672.366 1057.85 671.78 1058.2 671.194 1058.44 670.491 1058.73 669.847 1058.79 669.612 1058.91 669.437 1058.91 669.202 1059.02 668.499 1059.14 667.796 1059.2 667.093 1059.2 665.511 1058.79 664.397 1058.2 662.991 1058.14 662.815 1058.03 662.581 1057.91 662.405 1057.5 661.819 1057.09 661.233 1056.56 660.706 1056.09 660.237 1055.51 659.827 1054.92 659.417 1054.39 659.065 1053.57 658.772 1053.05 658.597 1052.23 658.304 1051.29 658.187 1050.41 658.245 1048.89 658.362 1048.36 658.48 1046.95 659.183 1046.54 659.358 1046.19 659.651 1045.84 659.944 1045.43 660.237 1045.14 660.472 1044.78 660.823 1044.37 661.351 1043.91 661.878 1043.55 662.522 1043.32 662.991 1043.08 663.577 1042.91 664.104 1042.85 664.222 1042.85 664.339 1042.79 664.397 1042.67 664.925 1042.62 665.511 1042.56 666.097 1042.56 666.214 1042.56 666.331 1042.56 666.39 1042.56 666.976 1042.67 667.562 1042.73 668.089 1042.73 668.206 1042.79 668.323 1042.79 668.382 1042.97 668.909 1043.2 669.554 1043.5 670.081 1043.55 670.198 1043.61 670.257 1043.67 670.374 1044.02 671.077 1044.55 671.663 1045.25 672.073 1045.84 672.601 1046.48 672.952 1047.25 673.128 1048.01 673.362 1048.71 673.421 1049.47 673.245 1050.23 673.187 1051 673.011 1051.7 672.542 1052.99 671.722 1054.1 670.491 1054.45 668.968 1054.51 668.499 1054.57 667.972 1054.63 667.503 1054.63 666.448 1054.39 665.452 1053.87 664.515 1053.75 664.398 1053.69 664.222 1053.63 664.104 1053.81 664.573 1054.04 665.101 1054.22 665.569 1054.16 665.452 1054.16 665.335 1054.1 665.159 1054.16 665.687 1054.22 666.155 1054.28 666.683 1054.28 666.507 1054.28 666.331 1054.28 666.097 1054.22 666.565 1054.16 667.093 1054.1 667.562 1054.16 667.386 1054.16 667.21 1054.28 667.034 1054.1 667.503 1053.92 667.972 1053.69 668.44 1053.81 668.206 1053.87 668.03 1054.04 667.855 1053.75 668.265 1053.46 668.675 1053.1 669.085 1053.22 668.909 1053.34 668.792 1053.51 668.675 1053.1 668.968 1052.69 669.319 1052.28 669.612 1052.46 669.495 1052.58 669.378 1052.75 669.319 1052.28 669.495 1051.76 669.73 1051.29 669.905 1051.46 669.847 1051.58 669.788 1051.76 669.788 1051.23 669.847 1050.76 669.905 1050.23 669.964 1050.41 669.964 1050.58 669.964 1050.82 669.964 1050.35 669.905 1049.82 669.847 1049.35 669.788 1049.53 669.847 1049.71 669.847 1049.88 669.964 1049.41 669.788 1048.94 669.612 1048.48 669.378 1048.71 669.495 1048.89 669.554 1049.06 669.73 1048.65 669.437 1048.24 669.144 1047.83 668.792 1048.07 668.968 1048.3 669.202 1048.48 669.437 1048.18 669.026 1047.83 668.616 1047.54 668.206 1047.71 668.44 1047.83 668.675 1047.95 668.909 1047.77 668.44 1047.54 667.913 1047.36 667.444 1047.48 667.679 1047.54 667.972 1047.54 668.206 1047.48 667.679 1047.42 667.21 1047.36 666.683 1047.36 666.917 1047.36 667.151 1047.36 667.386 1047.42 666.917 1047.48 666.39 1047.54 665.921 1047.48 666.214 1047.42 666.507 1047.3 666.8 1047.48 666.331 1047.66 665.862 1047.89 665.394 1047.77 665.687 1047.6 665.98 1047.36 666.272 1047.66 665.862 1047.95 665.452 1048.3 665.042 1048.07 665.335 1047.77 665.628 1047.48 665.862 1047.89 665.569 1048.3 665.218 1048.71 664.925 1048.36 665.159 1048.01 665.394 1047.6 665.569 1048.07 665.394 1048.59 665.159 1049.06 664.983 1048.71 665.101 1048.36 665.218 1048.01 665.276 1048.53 665.218 1049 665.159 1049.53 665.101 1049.24 665.159 1049 665.159 1048.71 665.101 1049.18 665.159 1049.71 665.218 1050.17 665.276 1049.88 665.218 1049.65 665.159 1049.41 665.101 1049.88 665.276 1050.35 665.452 1050.82 665.687 1050.58 665.569 1050.41 665.452 1050.23 665.335 1050.64 665.628 1051.05 665.921 1051.46 666.272 1051.23 666.097 1051.05 665.921 1050.88 665.687 1051.17 666.097 1051.52 666.507 1051.82 666.917 1051.64 666.683 1051.52 666.448 1051.41 666.214 1051.58 666.683 1051.82 667.21 1051.99 667.679 1051.87 667.444 1051.82 667.151 1051.76 666.917 1051.82 667.444 1051.87 667.913 1051.93 668.44 1051.93 668.206 1051.93 667.972 1051.93 667.737 1051.87 668.206 1051.82 668.733 1051.76 669.202 1051.82 668.968 1051.87 668.733 1051.93 668.558 1051.76 669.026 1051.58 669.495 1051.35 669.964 1051.46 669.729 1051.58 669.554 1051.7 669.378 1051.41 669.788 1051.11 670.198 1050.76 670.608 1050.94 670.374 1051.17 670.14 1051.41 669.964 1051 670.257 1050.58 670.608 1050.17 670.901 1050.41 670.726 1050.64 670.608 1050.88 670.491 1050.41 670.667 1049.88 670.901 1049.41 671.077 1049.65 671.019 1049.88 670.96 1050.06 670.901 1050.88 670.726 1051.52 670.374 1052.11 669.847 1052.75 669.437 1053.28 668.851 1053.63 668.147 1054.04 667.503 1054.28 666.8 1054.28 666.038 1054.45 665.276 1054.39 664.515 1054.16 663.812 1053.69 662.347 1052.81 660.94 1051.41 660.179 1050.94 660.003 1050.47 659.827 1050 659.593 1049.3 659.3 1048.3 659.3 1047.3 659.534zM1156.05 656.304C1155.58 656.421 1155.11 656.538 1154.7 656.655 1154.06 656.89 1153.36 657.183 1152.71 657.534 1152.07 657.886 1151.54 658.354 1150.95 658.823 1150.25 659.409 1149.67 660.171 1149.26 660.991 1148.67 662.222 1148.2 663.628 1148.32 664.976 1148.38 665.561 1148.44 666.382 1148.61 667.026 1148.79 667.554 1149.02 668.14 1149.31 668.667 1149.37 668.784 1149.43 668.901 1149.49 669.019 1150.37 670.366 1151.13 671.128 1152.48 672.007 1152.65 672.124 1152.89 672.241 1153.06 672.358 1153.71 672.651 1154.35 672.944 1155 673.062 1156.46 673.296 1157.75 673.413 1159.22 673.003 1159.33 672.944 1159.45 672.944 1159.57 672.886 1160.15 672.651 1160.74 672.476 1161.27 672.183 1161.5 672.065 1161.68 671.948 1161.85 671.831 1162.44 671.421 1163.02 671.011 1163.55 670.483 1164.08 669.956 1164.49 669.312 1164.9 668.784 1165.43 668.022 1165.78 667.085 1166.07 666.206 1166.13 665.972 1166.19 665.796 1166.25 665.561 1166.36 664.858 1166.54 664.097 1166.48 663.394 1166.42 661.929 1166.13 660.581 1165.43 659.292 1165.08 658.706 1164.67 658.12 1164.14 657.593 1163.9 657.417 1163.67 657.183 1163.44 657.065 1163.26 656.948 1162.97 656.714 1162.73 656.538 1162.61 656.479 1162.56 656.421 1162.44 656.362 1161.15 655.776 1160.56 655.601 1159.16 655.483 1159.04 655.483 1158.98 655.483 1158.86 655.483 1158.28 655.483 1157.63 655.601 1157.11 655.718 1156.7 655.776 1156.29 656.011 1155.88 656.186 1155.41 656.362 1155 656.538 1154.59 656.831 1154.06 657.183 1153.36 657.71 1152.83 658.237 1152.42 658.647 1152.13 659.175 1151.77 659.644 1151.72 659.761 1151.6 659.878 1151.54 659.995 1150.78 661.343 1150.54 662.573 1150.43 664.097 1150.37 664.8 1150.54 665.503 1150.6 666.206 1150.66 666.675 1150.9 667.085 1151.07 667.554 1151.48 668.608 1151.77 669.077 1152.6 670.015 1152.65 670.073 1152.77 670.19 1152.83 670.249 1153.18 670.542 1153.71 670.952 1154.12 671.187 1154.18 671.245 1154.24 671.245 1154.29 671.304 1154.94 671.714 1155.64 671.948 1156.4 671.948 1157.17 672.124 1157.93 672.065 1158.63 671.831 1159.45 671.655 1160.1 671.304 1160.68 670.776 1161.33 670.366 1161.85 669.78 1162.2 669.077 1162.91 667.729 1163.26 666.147 1162.79 664.683 1162.61 664.214 1162.38 663.687 1162.2 663.218 1161.68 662.28 1160.97 661.577 1160.04 661.05 1159.92 660.991 1159.86 660.933 1159.8 660.874 1160.21 661.167 1160.62 661.46 1161.03 661.811 1160.92 661.753 1160.86 661.636 1160.74 661.519 1161.03 661.929 1161.38 662.339 1161.68 662.749 1161.56 662.632 1161.5 662.456 1161.38 662.28 1161.56 662.749 1161.79 663.276 1161.97 663.745 1161.85 663.511 1161.85 663.276 1161.79 663.042 1161.85 663.569 1161.91 664.038 1161.97 664.565 1161.97 664.331 1161.97 664.097 1161.97 663.862 1161.91 664.331 1161.85 664.858 1161.79 665.327 1161.85 665.034 1161.91 664.8 1161.97 664.565 1161.79 665.034 1161.62 665.503 1161.38 665.972 1161.5 665.737 1161.62 665.562 1161.74 665.327 1161.44 665.737 1161.15 666.147 1160.8 666.558 1160.97 666.323 1161.15 666.147 1161.38 665.972 1160.97 666.265 1160.56 666.616 1160.15 666.909 1160.33 666.792 1160.56 666.616 1160.8 666.558 1160.33 666.733 1159.8 666.968 1159.33 667.144 1159.51 667.085 1159.74 667.026 1159.92 666.968 1159.39 667.026 1158.92 667.085 1158.4 667.144 1158.57 667.144 1158.75 667.144 1158.92 667.144 1158.45 667.085 1157.93 667.026 1157.46 666.968 1157.58 666.968 1157.69 667.026 1157.81 667.085 1157.34 666.909 1156.87 666.733 1156.4 666.499 1156.52 666.558 1156.7 666.616 1156.81 666.733 1156.4 666.44 1155.99 666.147 1155.58 665.796 1155.7 665.913 1155.82 665.972 1155.88 666.089 1155.58 665.679 1155.23 665.269 1154.94 664.858 1155.06 664.976 1155.11 665.151 1155.17 665.269 1155 664.8 1154.76 664.272 1154.59 663.804 1154.65 664.038 1154.7 664.214 1154.76 664.448 1154.7 663.921 1154.65 663.452 1154.59 662.925 1154.59 663.218 1154.59 663.452 1154.59 663.745 1154.65 663.276 1154.7 662.749 1154.76 662.28 1154.7 662.632 1154.59 662.983 1154.47 663.335 1154.65 662.866 1154.82 662.397 1155.06 661.929 1154.88 662.28 1154.7 662.632 1154.47 662.925 1154.76 662.515 1155.06 662.104 1155.41 661.694 1155.17 661.987 1154.88 662.28 1154.59 662.515 1155 662.222 1155.41 661.87 1155.82 661.577 1155.58 661.753 1155.29 661.929 1155 662.046 1155.47 661.87 1155.99 661.636 1156.46 661.46 1156.23 661.577 1155.99 661.636 1155.7 661.636 1156.23 661.577 1156.7 661.519 1157.22 661.46 1156.99 661.46 1156.76 661.519 1156.52 661.46 1156.99 661.519 1157.52 661.577 1157.99 661.636 1157.75 661.577 1157.52 661.519 1157.34 661.46 1157.81 661.636 1158.28 661.811 1158.75 662.046 1158.51 661.929 1158.28 661.812 1158.1 661.694 1158.51 661.987 1158.92 662.28 1159.33 662.632 1159.1 662.456 1158.92 662.28 1158.75 662.046 1159.04 662.456 1159.39 662.866 1159.69 663.276 1159.51 663.101 1159.39 662.866 1159.33 662.632 1159.51 663.101 1159.74 663.628 1159.92 664.097 1159.86 663.921 1159.8 663.687 1159.74 663.452 1159.8 663.979 1159.86 664.448 1159.92 664.976 1159.92 664.8 1159.92 664.683 1159.92 664.507 1159.86 664.976 1159.8 665.503 1159.74 665.972 1159.74 665.796 1159.8 665.62 1159.92 665.386 1159.74 665.854 1159.57 666.323 1159.33 666.792 1159.39 666.616 1159.51 666.44 1159.63 666.265 1159.33 666.675 1159.04 667.085 1158.69 667.495 1158.86 667.319 1159.04 667.144 1159.22 666.968 1158.81 667.261 1158.4 667.612 1157.99 667.905 1158.28 667.671 1158.63 667.495 1158.98 667.378 1158.51 667.554 1157.99 667.788 1157.52 667.964 1157.99 667.788 1158.45 667.671 1158.98 667.554 1159.8 667.378 1160.45 667.026 1161.03 666.499 1161.68 666.089 1162.2 665.503 1162.56 664.8 1162.97 664.155 1163.2 663.452 1163.2 662.69 1163.38 661.929 1163.32 661.167 1163.08 660.464 1162.91 659.995 1162.67 659.468 1162.5 658.999 1161.97 658.062 1161.27 657.358 1160.33 656.831 1159.86 656.655 1159.39 656.479 1158.92 656.245 1158.04 656.011 1157.05 656.011 1156.05 656.304zM1071.27 769.749C1100.39 780.999 1133.79 768.577 1149.14 741.565 1152.83 735.003 1142.7 729.202 1138.95 735.764 1126 758.557 1098.63 767.815 1074.32 758.44 1071.39 757.327 1067.87 759.729 1067.17 762.6 1066.23 765.881 1068.28 768.577 1071.27 769.749z" class="color203752 svgShape"></path><path fill="#32de31" d="M1014.08 949.047C1014.08 949.047 736.579 924.496 660.115 1082.35C583.65 1240.2 506.833 1482.13 546.15 1550.86C585.466 1619.59 634.744 1651.41 962.341 1651.41L971.716 1616.37L1424.94 1612.45L1422.77 1324.16C1422.77 1324.16 1543.94 1432.15 1665.17 1446.57C1783.3 1460.63 1886.13 1263.81 2028.1 1076.61L1909.04 989.301L1668.22 1206.68C1668.22 1206.68 1570.08 1071.92 1452.36 1002.89C1329.02 930.532 1198.94 938.617 1198.94 938.617L1122.48 1025.04L1014.08 949.047Z" class="color31decd svgShape"></path><path fill="#40b13f" d="M1052.17 1026.8L1092.72 1078.01L1052.46 1506.33L1113.22 1588.89L1177.5 1512.01L1139.47 1078.48L1175.69 1026.74L1143.81 990.646L1083.28 992.58L1052.17 1026.8Z" class="color1b81a6 svgShape"></path><path fill="#ffdaa6" d="M972.714 1536.74C1030.6 1536.16 1088.55 1551.21 1138.77 1579.92C1162.38 1593.4 1186 1612.39 1190.92 1639.1C1191.8 1643.79 1192.03 1648.89 1189.98 1653.17C1185 1663.71 1170.12 1664.3 1158.81 1661.49C1138.77 1656.45 1119.73 1645.67 1099.04 1646.37C1089.2 1646.72 1079.65 1649.71 1069.92 1651.35C1040.74 1656.33 1010.68 1649.18 983.437 1637.52C969.608 1631.6 955.897 1624.28 946.171 1612.85C936.444 1601.43 931.288 1585.02 936.444 1570.9C942.48 1554.79 959.472 1545.88 972.714 1536.74Z" class="colorffc5a6 svgShape"></path><path fill="#32de31" d="M962.346 1651.41L1000.08 1507.56 859.279 1481.25 962.346 1651.41zM1059.55 1069.57C1073.08 1041.67 1092.71 1016.77 1116.56 997.026 1144.22 1017.71 1167.54 1043.9 1183.36 1074.02 1201.64 1030.01 1226.6 988.589 1255.78 950.386 1243.53 933.511 1229.06 921.382 1213.71 910.366 1181.13 934.155 1148.03 960.112 1116.33 987.593 1083.46 961.46 1047.54 938.843 1010.16 919.155 1003.24 929.116 984.022 951.558 977.343 962.397 1006.11 1007.92 1028.91 1039.33 1059.55 1069.57z" class="color31decd svgShape"></path><path fill="#ffdaa6" d="M1792.21 2109.61C1746.27 2105.8 1705.2 2080.25 1660.66 2068.41 1607.23 2054.18 1548.57 2060.45 1499.3 2085.64 1492.91 2088.92 1485.88 2093.67 1485.53 2100.88 1485 2111.3 1498.12 2116.34 1508.55 2117.22 1530.29 2118.98 1552.73 2116.7 1573.36 2123.79 1588.95 2129.12 1602.25 2139.43 1616.43 2147.81 1648.83 2166.97 1686.09 2176.23 1723.18 2182.67 1734.84 2184.72 1746.74 2186.48 1758.4 2184.49 1770.06 2182.5 1781.54 2176.23 1786.93 2165.68 1791.27 2157.24 1791.15 2147.28 1790.98 2137.79 1790.8 2129.06 1790.62 2120.45 1792.21 2109.61zM1701.15 2215.26C1622.46 2208.81 1557.95 2148.05 1480.49 2132.58 1416.79 2119.81 1348.77 2140.02 1297.97 2180.51 1292.46 2184.91 1287.07 2189.65 1283.9 2195.92 1280.74 2202.19 1280.33 2210.28 1284.61 2215.84 1289.65 2222.35 1299.02 2223.28 1307.28 2223.17 1340.33 2222.58 1373.61 2213.62 1405.95 2220.24 1427.81 2224.75 1447.56 2236.12 1467.83 2245.43 1505.15 2262.48 1545.58 2272.74 1586.54 2275.61 1616.31 2277.66 1648.47 2275.02 1672.03 2256.68 1684.33 2247.01 1693.53 2233.42 1701.15 2215.26z" class="colorffc5a6 svgShape"></path><path fill="#40b13f" d="M2372.17 1690.08C2327.52 1736.07 2295.47 1794.2 2280.41 1856.48C2279.71 1859.53 2279.01 1862.81 2280.35 1865.62C2283.17 1871.66 2291.9 1870.84 2298.17 1868.73C2317.62 1862.22 2335.9 1852.32 2351.96 1839.61C2361.04 1832.46 2369.59 1824.14 2374.51 1813.65C2391.92 1776.79 2358.34 1732.73 2372.17 1690.08Z" class="color203752 svgShape"></path><path fill="#32de31" d="M2753.32 2536.94C2781.92 2216.49 2789.18 1868.21 2597.58 1702.03C2592.31 1669.51 2584.75 1638.63 2574.26 1608.81C2507.11 1638.93 2428.01 1666.64 2364.9 1675.61C2365.08 1677.6 2314.22 1793.21 2314.22 1793.21L2363.15 1786.41C2363.15 1786.41 2274.55 1811.84 2189.24 1912.21C2103.93 2012.58 2066.43 2084.3 2066.43 2084.3L1735.96 2075.86L1685.04 2184.67L1625.63 2162.52C1625.63 2162.52 1587.83 2209.69 1555.31 2291.54C1683.17 2364.38 1818.58 2423.79 1958.73 2468.56C1991.9 2479.16 2027.29 2488.95 2060.98 2480.51C2080.43 2475.65 2097.89 2464.92 2114.36 2453.5C2144.88 2432.29 2173.3 2407.97 2205.24 2383.07C2207.7 2434.87 2208.81 2486.78 2207.05 2541.8C2397.19 2562.48 2568.52 2562.19 2753.32 2536.94Z" class="color31decd svgShape"></path><path fill="#ffdaa6" d="M2569.69 1552.26L2572.5 1669.92C2572.5 1669.92 2385.35 1735.54 2381.01 1696.7C2378.9 1677.83 2377.67 1652.28 2376.97 1630.72C2376.15 1606.99 2376.03 1588.18 2376.03 1588.18C2376.03 1588.18 2324.06 1608.34 2291.66 1575.88C2233.3 1517.52 2261.83 1353.28 2279.94 1227.71L2528.03 1249.74L2632.15 1364.29L2569.69 1552.26Z" class="colorffc5a6 svgShape"></path><path fill="#40b13f" d="M2578.47 1580.16C2572.97 1581.74 2567.34 1578.34 2562.77 1574.83C2517.77 1540.61 2490.23 1484.59 2490.64 1428.11C2503.06 1428.23 2514.96 1421.37 2523.04 1411.59C2531.07 1401.74 2535.41 1389.14 2535.99 1376.49C2536.29 1370.22 2535.7 1363.77 2533.18 1358.03C2526.03 1341.8 2504.47 1335.65 2487.71 1341.39C2470.96 1347.13 2458.65 1361.84 2450.56 1377.6C2442.48 1393.36 2437.62 1410.59 2430.29 1426.76C2423.44 1389.38 2416.11 1351.29 2388.51 1329.61C2365.13 1311.21 2333.26 1309.52 2305.25 1299.5C2263.3 1284.55 2229.84 1250.04 2211.03 1209.67C2192.22 1169.3 2187.07 1123.48 2194.33 1077.02C2207.17 1099.75 2234 1111.59 2260.02 1113.58C2286.03 1115.57 2311.93 1109.3 2337.48 1103.91C2370.06 1097.05 2402.93 1091.49 2435.92 1086.8C2450.04 1084.81 2464.33 1082.93 2478.57 1083.7C2518.12 1085.8 2555.86 1109.71 2577.19 1146.39C2616.68 1137.6 2660.74 1156.59 2681.48 1191.33C2689.39 1204.57 2694.02 1219.46 2697.3 1234.52C2710.72 1295.45 2702.69 1360.96 2674.86 1416.86C2664.2 1438.36 2650.72 1458.4 2637.3 1478.32C2626.46 1494.44 2615.62 1510.61 2604.78 1526.72C2593.36 1543.83 2581.46 1561.82 2578.47 1580.16Z" class="color203752 svgShape"></path><path fill="#ffbf66" d="M2468.26 1553.84C2453.2 1572.83 2437.56 1591.58 2418.69 1606.81C2406.09 1616.89 2392.03 1625.45 2376.91 1630.78C2376.09 1607.05 2375.98 1588.24 2375.98 1588.24C2408.96 1582.09 2439.2 1570.72 2468.26 1553.84Z" class="colorff9f6b svgShape"></path><path fill="#40b13f" d="M734.178 1457.93C822.069 1474.16 909.256 1494.2 995.447 1517.99C993.983 1516.11 992.576 1514.18 991.111 1512.3C984.373 1563.46 972.479 1613.79 955.955 1662.6C953.553 1669.74 964.862 1672.73 967.264 1665.64C984.139 1615.84 995.975 1564.51 1002.83 1512.36C1003.18 1509.84 1000.78 1507.32 998.494 1506.68C912.303 1482.95 825.115 1462.91 737.225 1446.62C729.783 1445.21 726.737 1456.52 734.178 1457.93Z" class="color203752 svgShape"></path><path fill="#40b13f" d="M837.773 1242.13C822.832 1315.19 812.695 1389.2 807.363 1463.61 806.836 1471.17 818.554 1471.17 819.082 1463.67 824.355 1390.25 834.375 1317.3 849.14 1245.17 850.605 1237.79 839.297 1234.75 837.773 1242.13zM976.817 970.66C1005.23 1003.71 1031.37 1038.57 1055.1 1075.19 1057.5 1078.88 1063.01 1079.18 1065.23 1075.19 1080.12 1049.06 1099.34 1026.03 1122.36 1006.7 1119.61 1006.7 1116.86 1006.75 1114.1 1006.75 1137.89 1024.86 1159.4 1045.54 1178.32 1068.69 1180.61 1071.5 1186 1070.62 1187.52 1067.4 1206.21 1027.73 1228.24 989.762 1253.44 953.844 1257.77 947.691 1247.58 941.891 1243.24 948.043 1218.05 983.961 1196.02 1021.93 1177.32 1061.6 1180.37 1061.19 1183.48 1060.78 1186.52 1060.31 1167.6 1037.22 1146.09 1016.48 1122.31 998.375 1119.61 996.324 1116.74 996.148 1114.04 998.434 1090.31 1018.41 1070.39 1042.44 1055.04 1069.39 1058.44 1069.39 1061.84 1069.39 1065.18 1069.39 1040.92 1031.95 1014.14 996.207 985.02 962.398 980.157 956.598 971.895 964.918 976.817 970.66z" class="color203752 svgShape"></path><path fill="#40b13f" d="M1075.55 1060.78C1078.65 1065 1081.82 1069.22 1084.92 1073.44C1087.44 1076.83 1089.9 1081.64 1093.65 1083.86C1097.4 1086.09 1102.09 1085.15 1106.25 1084.86C1111.35 1084.57 1116.45 1084.22 1121.54 1083.92C1129.69 1083.45 1140.88 1084.92 1146.68 1078.06C1153.18 1070.39 1158.93 1062.01 1164.96 1053.98C1166.9 1051.46 1167.36 1048.12 1164.9 1045.72C1162.91 1043.67 1158.52 1043.26 1156.64 1045.78C1151.72 1052.28 1146.74 1058.79 1141.82 1065.29C1140 1067.69 1138.54 1071.03 1135.37 1071.33C1131.33 1071.74 1127.17 1071.85 1123.13 1072.09C1119.02 1072.32 1114.98 1072.61 1110.88 1072.85C1108.83 1072.97 1106.78 1073.08 1104.73 1073.2C1103.38 1073.26 1100.27 1074.08 1099.04 1073.55C1099.57 1073.79 1097.23 1070.51 1096.88 1070.1C1095.65 1068.4 1094.36 1066.7 1093.13 1065.06C1090.61 1061.66 1088.15 1058.32 1085.63 1054.92C1083.75 1052.34 1080.59 1051.11 1077.6 1052.75C1075.2 1054.22 1073.67 1058.2 1075.55 1060.78Z" class="color203752 svgShape"></path><path fill="#40b13f" d="M1091.13 1079.01C1083.69 1189.22 1066.4 1298.38 1054.51 1408.13 1051.17 1438.95 1048.3 1469.77 1046.19 1500.71 1045.66 1508.26 1057.38 1508.26 1057.91 1500.76 1065.29 1391.49 1082.64 1283.26 1094.35 1174.4 1097.75 1142.7 1100.68 1110.88 1102.85 1079.06 1103.32 1071.56 1091.6 1071.51 1091.13 1079.01zM1135.72 1083.05C1140.59 1211.49 1156.76 1339.16 1171.06 1466.78 1172.05 1475.51 1173.28 1484.3 1173.93 1493.09 1174.57 1502.17 1172.58 1508.97 1166.95 1516.06 1155.82 1530.12 1144.22 1543.83 1132.85 1557.72 1128.11 1563.52 1136.43 1571.78 1141.17 1565.92 1151.78 1552.97 1162.38 1540.08 1172.93 1527.13 1181.54 1516.58 1186.64 1507.03 1185.65 1493.09 1183.36 1460.16 1178.38 1427.23 1174.69 1394.42 1167.31 1328.21 1159.81 1262.05 1154.36 1195.67 1151.31 1158.17 1148.91 1120.61 1147.44 1082.99 1147.15 1075.61 1135.43 1075.55 1135.72 1083.05zM1410 1175.16C1414.69 1291 1417.73 1406.9 1419.08 1522.85 1419.49 1555.96 1419.73 1589.12 1419.84 1622.23 1419.84 1629.79 1431.56 1629.84 1431.56 1622.29 1431.15 1506.33 1429.1 1390.43 1425.35 1274.53 1424.3 1241.43 1423.07 1208.32 1421.72 1175.22 1421.37 1167.66 1409.65 1167.6 1410 1175.16zM1654.04 1224.84C1741.46 1148.08 1828.83 1071.32 1916.25 994.566 1913.49 994.566 1910.74 994.624 1907.99 994.624 1945.25 1023.39 1982.58 1052.16 2019.84 1080.87 2025.76 1085.44 2034.02 1077.12 2028.04 1072.55 1990.78 1043.78 1953.45 1015.01 1916.19 986.304 1913.55 984.253 1910.51 984.077 1907.93 986.363 1820.51 1063.12 1733.14 1139.88 1645.72 1216.64 1640.04 1221.56 1648.36 1229.82 1654.04 1224.84z" class="color203752 svgShape"></path><path fill="#ffbf66" d="M2007.36 842.169C2007.89 860.274 2014.34 875.685 2023.89 890.802C2031.8 903.341 2042.23 920.216 2032.33 934.571C2028.05 940.782 2038.24 946.583 2042.52 940.372C2052.54 925.9 2047.27 907.442 2039.24 893.38C2034.73 885.528 2029.28 878.146 2025.41 869.884C2021.37 861.212 2019.38 851.72 2019.08 842.228C2018.91 834.669 2007.19 834.61 2007.36 842.169Z" class="colorff9f6b svgShape"></path><path fill="#40b13f" d="M1706.83 1615.08C1792.5 1612.04 1883.9 1619.89 1959.9 1572.31 1969.22 1566.45 1978.65 1560.18 1986.15 1552.04 1993.47 1544.07 1999.28 1534.75 2004.08 1525.08 2010.82 1511.55 2015.62 1497.6 2018.9 1482.89 2026.46 1448.97 2029.22 1413.87 2031.21 1379.24 2033.2 1344.96 2034.02 1310.57 2033.9 1276.18 2033.9 1268.62 2022.19 1268.56 2022.19 1276.12 2022.36 1338.34 2021.31 1401.92 2010.76 1463.38 2005.13 1496.25 1994.7 1533.23 1966.4 1553.79 1931.66 1579.11 1890.41 1592.05 1848.16 1597.62 1801.35 1603.77 1753.94 1601.61 1706.89 1603.3 1699.39 1603.6 1699.28 1615.32 1706.83 1615.08zM842.752 2027.11C962.283 2024.65 1081.81 2022.13 1201.29 2019.67 1320.76 2017.21 1440.35 2014.69 1559.82 2012.22 1627.15 2010.82 1694.47 2009.41 1761.8 2008.01 1769.35 2007.83 1769.41 1996.11 1761.85 1996.29 1642.32 1998.75 1522.79 2001.27 1403.32 2003.73 1283.85 2006.19 1164.26 2008.71 1044.78 2011.17 977.459 2012.58 910.135 2013.98 842.811 2015.39 835.252 2015.56 835.193 2027.28 842.752 2027.11zM822.128 2046.27C908.613 2116 995.097 2185.72 1081.64 2255.45 1103.26 2272.91 1124.88 2290.31 1146.5 2307.77 1155.64 2315.16 1163.73 2321.19 1175.8 2322.13 1189.63 2323.18 1203.75 2322.54 1217.58 2322.72 1273.18 2323.24 1328.85 2323.83 1384.45 2324.36 1446.91 2324.94 1509.37 2325.59 1571.84 2326.17 1579.39 2326.23 1579.45 2314.51 1571.89 2314.45 1463.09 2313.4 1354.28 2312.34 1245.47 2311.23 1231.82 2311.11 1218.16 2310.94 1204.45 2310.82 1192.03 2310.7 1174.92 2313.52 1164.08 2306.54 1152.71 2299.28 1142.46 2289.49 1131.97 2281.06 1121.37 2272.5 1110.7 2263.95 1100.1 2255.39 1057.97 2221.47 1015.9 2187.48 973.769 2153.56 925.956 2115 878.144 2076.5 830.39 2037.95 824.589 2033.2 816.269 2041.52 822.128 2046.27z" class="color203752 svgShape"></path><path fill="#40b13f" d="M1160.5 2327.22C1160.5 2347.38 1160.5 2367.48 1160.5 2387.63 1160.5 2395.19 1172.22 2395.25 1172.22 2387.69 1172.22 2367.54 1172.22 2347.44 1172.22 2327.28 1172.22 2319.72 1160.5 2319.66 1160.5 2327.22zM1629.14 2173.48C1703.09 2196.85 1778.91 2214.2 1855.72 2225.16 1888.83 2229.84 1923.28 2234.47 1956.27 2226.62 1987.03 2219.3 2011.05 2199.96 2029.04 2174.53 2046.74 2149.51 2058.4 2120.92 2071.99 2093.61 2087.46 2062.62 2104.92 2032.62 2124.2 2003.79 2163.22 1945.66 2209.98 1890.99 2263.83 1845.99 2322.77 1796.72 2406.21 1758.63 2481.68 1794.26 2488.48 1797.48 2494.34 1787.28 2487.48 1784.06 2424.26 1754.24 2351.72 1771.93 2295.18 1808.26 2265.64 1827.24 2239.28 1850.74 2214.55 1875.53 2190.06 1900.02 2167.15 1926.09 2146 1953.57 2124.55 1981.41 2104.8 2010.58 2087.11 2040.94 2070.29 2069.76 2056.47 2099.88 2041.52 2129.71 2028.11 2156.48 2012.17 2184.2 1986.62 2201.07 1957.21 2220.47 1920.88 2220.76 1886.95 2217.36 1800.7 2208.57 1714.69 2188.24 1632.13 2162.17 1624.98 2159.88 1621.93 2171.19 1629.14 2173.48z" class="color203752 svgShape"></path><path fill="#40b13f" d="M2426.13 1773.29C2483.15 1758.23 2538.28 1736.49 2590.2 1708.6 2596.82 1705.02 2590.96 1694.89 2584.34 1698.46 2533.24 1725.88 2479.22 1747.15 2423.15 1761.98 2415.88 1763.85 2418.87 1775.22 2426.13 1773.29zM1564.63 2284.57C1579.8 2242.44 1602.36 2203.07 1631.02 2168.67 1635.82 2162.93 1627.5 2154.61 1622.69 2160.47 1592.64 2196.51 1569.26 2237.4 1553.32 2281.58 1550.74 2288.67 1562.05 2291.66 1564.63 2284.57zM1694.71 2178.69C1707.36 2155.13 1720.02 2131.58 1732.68 2108.08 1735.66 2102.52 1738.65 2096.95 1741.64 2091.38 1742.64 2089.57 1743.57 2087.05 1744.98 2085.47 1747.56 2082.6 1750.66 2082.83 1754.36 2082.6 1767.31 2081.78 1780.25 2081.25 1793.15 2080.84 1845.41 2079.08 1897.73 2079.84 1949.94 2083.01 1979.65 2084.82 2009.24 2087.52 2038.83 2090.92 2046.33 2091.79 2046.33 2080.08 2038.89 2079.2 1984.1 2072.87 1928.97 2069.18 1873.83 2068.36 1846 2067.95 1818.16 2068.18 1790.39 2069.18 1776.86 2069.65 1763.09 2069.82 1749.61 2071.17 1738.77 2072.22 1734.9 2079.26 1730.16 2088.16 1714.98 2116.4 1699.81 2144.65 1684.63 2172.89 1681 2179.51 1691.13 2185.37 1694.71 2178.69zM2148.05 2432.47C2220.18 2376.68 2284.75 2311.7 2342.58 2241.27 2371.23 2206.41 2398.36 2170.26 2424.08 2133.17 2450.86 2094.61 2477.76 2055.3 2499.79 2013.81 2524.45 1967.35 2540.86 1914.26 2528.85 1861.59 2527.15 1854.2 2515.84 1857.19 2517.48 1864.52 2528.26 1911.8 2514.26 1959.85 2492.7 2001.98 2471.84 2042.82 2445.53 2081.26 2419.63 2118.99 2369.47 2192.06 2313.99 2261.72 2251.64 2324.77 2216.49 2360.28 2179.22 2393.62 2139.67 2424.15 2133.75 2428.83 2142.13 2437.04 2148.05 2432.47zM2491.88 2158.82C2492.35 2276.19 2492.81 2393.49 2493.28 2510.85 2493.34 2518.41 2505.06 2518.47 2505 2510.91 2504.53 2393.55 2504.06 2276.25 2503.6 2158.88 2503.6 2151.32 2491.88 2151.26 2491.88 2158.82z" class="color203752 svgShape"></path></svg>